<svg width="70" height="70" viewBox="0 0 70 70" fill="none" xmlns="http://www.w3.org/2000/svg">
<path d="M34.712 69.424C53.8829 69.424 69.424 53.8829 69.424 34.712C69.424 15.5411 53.8829 0 34.712 0C15.5411 0 0 15.5411 0 34.712C0 53.8829 15.5411 69.424 34.712 69.424Z" fill="#4B6BFB"/>
<path d="M35.255 10.265L34.785 9.60001C20.298 30.535 34.785 38.714 34.785 38.714L35.255 38.499C35.255 38.499 49.743 31.2 35.255 10.265Z" stroke="white" stroke-width="1.2209" stroke-miterlimit="10"/>
<path d="M34.7069 20.243V59.826" stroke="white" stroke-width="1.2209" stroke-miterlimit="10" stroke-linecap="round"/>
<path d="M57.786 30.638L57.9 29.975C37.21 33.741 40.895 46.98 40.895 46.98L41.295 47.129C41.295 47.129 54.02 51.328 57.786 30.638Z" stroke="white" stroke-width="1.2209" stroke-miterlimit="10"/>
<path d="M51.2719 36.512L34.8459 52.939" stroke="white" stroke-width="1.2209" stroke-miterlimit="10" stroke-linecap="round"/>
<path d="M11.6379 30.638L11.5239 29.975C32.2139 33.741 28.5289 46.98 28.5289 46.98L28.1289 47.129C28.1289 47.129 15.4039 51.328 11.6379 30.638Z" stroke="white" stroke-width="1.2209" stroke-miterlimit="10"/>
<path d="M18.152 36.512L34.578 52.939" stroke="white" stroke-width="1.2209" stroke-miterlimit="10" stroke-linecap="round"/>
<path d="M39.0899 27.13L34.9419 31.278" stroke="white" stroke-width="1.2209" stroke-miterlimit="10" stroke-linecap="round"/>
<path d="M31.4199 22.591L34.6289 25.8" stroke="white" stroke-width="1.2209" stroke-miterlimit="10" stroke-linecap="round"/>
<path d="M49.0259 43.407L44.8309 43.234" stroke="white" stroke-width="1.2209" stroke-miterlimit="10" stroke-linecap="round"/>
<path d="M47.225 36.384V40.591" stroke="white" stroke-width="1.2209" stroke-miterlimit="10" stroke-linecap="round"/>
<path d="M24.8329 38.369V43.141" stroke="white" stroke-width="1.2209" stroke-miterlimit="10" stroke-linecap="round"/>
<path d="M17.8099 40.639H22.0169" stroke="white" stroke-width="1.2209" stroke-miterlimit="10" stroke-linecap="round"/>
</svg>
