<svg width="71" height="70" viewBox="0 0 71 70" fill="none" xmlns="http://www.w3.org/2000/svg">
<path d="M35.4813 69.424C54.6522 69.424 70.1933 53.8829 70.1933 34.712C70.1933 15.5411 54.6522 0 35.4813 0C16.3104 0 0.769287 15.5411 0.769287 34.712C0.769287 53.8829 16.3104 69.424 35.4813 69.424Z" fill="#529B03"/>
<path d="M36.0243 10.265L35.5543 9.60001C21.0673 30.535 35.5543 38.714 35.5543 38.714L36.0243 38.499C36.0243 38.499 50.5123 31.2 36.0243 10.265Z" stroke="white" stroke-width="1.2209" stroke-miterlimit="10"/>
<path d="M35.4763 20.243V59.826" stroke="white" stroke-width="1.2209" stroke-miterlimit="10" stroke-linecap="round"/>
<path d="M58.5552 30.638L58.6693 29.975C37.9792 33.741 41.6642 46.98 41.6642 46.98L42.0642 47.129C42.0642 47.129 54.7892 51.328 58.5552 30.638Z" stroke="white" stroke-width="1.2209" stroke-miterlimit="10"/>
<path d="M52.0413 36.512L35.6153 52.939" stroke="white" stroke-width="1.2209" stroke-miterlimit="10" stroke-linecap="round"/>
<path d="M12.4073 30.638L12.2933 29.975C32.9833 33.741 29.2983 46.98 29.2983 46.98L28.8983 47.129C28.8983 47.129 16.1733 51.328 12.4073 30.638Z" stroke="white" stroke-width="1.2209" stroke-miterlimit="10"/>
<path d="M18.9213 36.512L35.3473 52.939" stroke="white" stroke-width="1.2209" stroke-miterlimit="10" stroke-linecap="round"/>
<path d="M39.8593 27.13L35.7113 31.278" stroke="white" stroke-width="1.2209" stroke-miterlimit="10" stroke-linecap="round"/>
<path d="M32.1893 22.591L35.3983 25.8" stroke="white" stroke-width="1.2209" stroke-miterlimit="10" stroke-linecap="round"/>
<path d="M49.7953 43.407L45.6003 43.234" stroke="white" stroke-width="1.2209" stroke-miterlimit="10" stroke-linecap="round"/>
<path d="M47.9943 36.384V40.591" stroke="white" stroke-width="1.2209" stroke-miterlimit="10" stroke-linecap="round"/>
<path d="M25.6023 38.369V43.141" stroke="white" stroke-width="1.2209" stroke-miterlimit="10" stroke-linecap="round"/>
<path d="M18.5793 40.639H22.7863" stroke="white" stroke-width="1.2209" stroke-miterlimit="10" stroke-linecap="round"/>
</svg>
