<svg width="112" height="112" viewBox="0 0 112 112" fill="none" xmlns="http://www.w3.org/2000/svg">
<path d="M55.601 111.202C86.3086 111.202 111.202 86.3086 111.202 55.601C111.202 24.8934 86.3086 0 55.601 0C24.8934 0 0 24.8934 0 55.601C0 86.3086 24.8934 111.202 55.601 111.202Z" fill="#057AFF"/>
<path d="M51.1581 50.601C68.7421 54.099 73.2791 35.475 73.2791 35.475C51.7251 31.221 51.074 50.979 51.074 50.979V78.205" stroke="white" stroke-width="1.2209" stroke-miterlimit="10" stroke-linecap="round"/>
<path d="M50.591 60.236C50.591 60.236 50.219 48.964 37.923 51.391C37.923 51.391 40.512 62.231 50.543 60.236H50.591Z" stroke="white" stroke-width="1.2209" stroke-miterlimit="10" stroke-linecap="round"/>
<path d="M51.6411 69.818C51.6411 69.818 52.1091 55.612 67.6071 58.67C67.6071 58.67 64.344 72.332 51.701 69.818H51.6411Z" stroke="white" stroke-width="1.2209" stroke-miterlimit="10" stroke-linecap="round"/>
<path d="M51.1581 50.223L72.428 36.042" stroke="white" stroke-width="1.2209" stroke-miterlimit="10" stroke-linecap="round"/>
<path d="M38.289 51.74L50.591 60.103" stroke="white" stroke-width="1.2209" stroke-miterlimit="10" stroke-linecap="round"/>
<path d="M51.583 69.508L67.229 59.109" stroke="white" stroke-width="1.2209" stroke-miterlimit="10" stroke-linecap="round"/>
<path d="M66.0471 34.908L63.069 42.14" stroke="white" stroke-width="1.2209" stroke-miterlimit="10" stroke-linecap="round"/>
<path d="M60.233 36.609L56.263 46.536" stroke="white" stroke-width="1.2209" stroke-miterlimit="10" stroke-linecap="round"/>
<path d="M56.7921 46.975L65.527 47.67" stroke="white" stroke-width="1.2209" stroke-miterlimit="10" stroke-linecap="round"/>
<path d="M63.069 42.282H69.876" stroke="white" stroke-width="1.2209" stroke-miterlimit="10" stroke-linecap="round"/>
<path d="M40.802 57.026L45.7531 56.84" stroke="white" stroke-width="1.2209" stroke-miterlimit="10" stroke-linecap="round"/>
<path d="M45.8651 56.84L44.177 51.552" stroke="white" stroke-width="1.2209" stroke-miterlimit="10" stroke-linecap="round"/>
<path d="M64.346 65.396L58.39 64.829" stroke="white" stroke-width="1.2209" stroke-miterlimit="10" stroke-linecap="round"/>
<path d="M58.673 64.403L60.6591 58.447" stroke="white" stroke-width="1.2209" stroke-miterlimit="10" stroke-linecap="round"/>
<path d="M25.41 26.314C25.41 25.65 24.871 25.111 24.207 25.111C23.543 25.111 23.004 25.65 23.004 26.314C23.004 26.978 23.543 27.517 24.207 27.517C24.871 27.517 25.41 26.978 25.41 26.314Z" fill="white"/>
<path d="M87.362 26.314C87.362 25.65 86.8231 25.111 86.1591 25.111C85.4951 25.111 84.9561 25.65 84.9561 26.314C84.9561 26.978 85.4951 27.517 86.1591 27.517C86.8231 27.517 87.362 26.978 87.362 26.314Z" fill="white"/>
<path d="M16.9901 70.071C16.9901 69.407 16.452 68.868 15.787 68.868C15.122 68.868 14.584 69.407 14.584 70.071C14.584 70.735 15.123 71.274 15.787 71.274C16.451 71.274 16.9901 70.736 16.9901 70.071Z" fill="white"/>
<path d="M95.783 70.071C95.783 69.407 95.244 68.868 94.58 68.868C93.916 68.868 93.377 69.407 93.377 70.071C93.377 70.735 93.916 71.274 94.58 71.274C95.244 71.274 95.783 70.736 95.783 70.071Z" fill="white"/>
</svg>
